<svg viewBox="0 0 40 40" fill="none" xmlns="http://www.w3.org/2000/svg">
<path d="M0 6C0 2.68629 2.68629 0 6 0H34C37.3137 0 40 2.68629 40 6V34C40 37.3137 37.3137 40 34 40H6C2.68629 40 0 37.3137 0 34V6Z" fill="#2D374B"/>
<path d="M18.7077 7.31715L9.18975 12.8146C8.8279 13.0235 8.52741 13.324 8.31856 13.6859C8.10971 14.0478 7.99985 14.4583 8 14.8761L8.00596 25.8831C8.00623 26.3003 8.11617 26.7101 8.32477 27.0714C8.53337 27.4327 8.83329 27.7327 9.19446 27.9416L18.7235 33.4501C19.0852 33.6589 19.4955 33.7689 19.9132 33.7689C20.3309 33.7689 20.7412 33.6589 21.103 33.4501L30.6209 27.9543C30.9828 27.7454 31.2832 27.4448 31.4921 27.083C31.7009 26.7211 31.8108 26.3106 31.8106 25.8927L31.8047 14.8858C31.8044 14.4686 31.6944 14.0589 31.4858 13.6976C31.2772 13.3364 30.9773 13.0363 30.6162 12.8275L21.0872 7.31879C20.7255 7.10995 20.3151 7 19.8974 7C19.4797 7 19.0694 7.10995 18.7077 7.31879V7.31715Z" fill="white"/>
<path d="M15.566 29.7295C15.5807 29.6578 15.6128 29.5908 15.6595 29.5344C18.5067 24.7033 21.3544 19.8723 24.2025 15.0415C24.2421 14.9744 24.2788 14.9055 24.3125 14.8454C24.2874 14.8017 24.2589 14.8107 24.2347 14.8107C23.0179 14.8151 21.8011 14.8229 20.5834 14.8214C20.5314 14.8205 20.4803 14.8355 20.4371 14.8645C20.3939 14.8935 20.3605 14.935 20.3416 14.9835C19.4237 16.5014 18.5046 18.019 17.5844 19.5361C15.635 22.7524 13.6854 25.9686 11.7356 29.1847C11.7184 29.2132 11.7003 29.2411 11.685 29.2704C11.6505 29.3369 11.6113 29.3474 11.5414 29.3068C11.2388 29.1281 10.933 28.9552 10.6115 28.7703L19.2885 14.854C19.2698 14.7974 19.2314 14.8116 19.2019 14.8105C18.7369 14.7966 18.2717 14.7765 17.807 14.7724C17.1543 14.7531 16.5039 14.8579 15.8903 15.0813C15.3315 15.2882 14.8566 15.6738 14.5393 16.1781C12.9539 18.6509 11.3626 21.1198 9.76518 23.5849C9.74015 23.6239 9.7135 23.662 9.68765 23.7006C9.59617 23.7006 9.60968 23.6251 9.60127 23.5724C9.59317 23.493 9.59129 23.4131 9.59556 23.3334C9.59556 20.6069 9.60499 17.8803 9.58714 15.1539C9.57281 14.919 9.62928 14.6852 9.7493 14.4827C9.86933 14.2803 10.0474 14.1185 10.2604 14.0183C12.357 12.8231 14.4401 11.6032 16.5299 10.3958C17.4626 9.85691 18.3982 9.32317 19.3242 8.77301C19.4983 8.65615 19.7033 8.59375 19.9131 8.59375C20.1228 8.59375 20.3278 8.65615 20.502 8.77301C22.2046 9.77219 23.9223 10.7482 25.6337 11.7332C26.9245 12.4765 28.2159 13.2184 29.508 13.9591C29.6005 14.0118 29.6905 14.0682 29.7834 14.1201C29.9345 14.2004 30.0594 14.3222 30.1435 14.4713C30.2275 14.6203 30.2671 14.7903 30.2577 14.9611C30.2601 17.927 30.2601 20.8929 30.2577 23.8587C30.2637 23.9317 30.2558 24.0052 30.2343 24.0752C30.1317 24.1742 30.0946 24.0631 30.0573 24.0103C29.9035 23.7939 29.7654 23.566 29.6224 23.342C28.4775 21.5499 27.3288 19.7602 26.1762 17.9728C25.789 17.3687 25.3968 16.7671 25.0136 16.1605C24.9241 16.019 24.908 16.0169 24.8185 16.1689C24.2403 17.1472 23.6625 18.1258 23.085 19.1045C23.0533 19.1589 23.0396 19.2219 23.046 19.2846C23.0523 19.3472 23.0783 19.4063 23.1202 19.4532C23.5964 20.2215 24.0717 20.9903 24.5461 21.7597L26.9783 25.694C27.3065 26.2257 27.6352 26.7569 27.9645 27.2877C28.0257 27.3588 28.0601 27.4491 28.0618 27.5429C27.996 27.6737 27.8587 27.7104 27.7444 27.7699C27.5569 27.9053 27.3509 28.0129 27.1326 28.0893C27.0148 28.06 26.9732 27.9537 26.9174 27.8667C26.1643 26.6922 25.421 25.5117 24.6729 24.3342C23.9034 23.124 23.1377 21.9092 22.365 20.7002C22.2659 20.5451 22.2501 20.5441 22.157 20.7002C21.4847 21.8311 20.8218 22.9673 20.1479 24.0969C20.1135 24.1498 20.0965 24.2123 20.0995 24.2754C20.1025 24.3385 20.1253 24.399 20.1646 24.4485C21.0723 25.8475 21.959 27.2588 22.8571 28.6647C23.1075 29.0565 23.3598 29.4469 23.6058 29.8415C23.6538 29.9182 23.7194 29.9948 23.6759 30.0985C23.4402 30.282 23.1858 30.4401 22.917 30.5703C22.0781 31.0584 21.2389 31.5458 20.3992 32.0325C20.2647 32.1193 20.108 32.1655 19.9479 32.1655C19.7878 32.1655 19.6311 32.1193 19.4966 32.0325C18.2599 31.317 17.0209 30.6047 15.7796 29.8957C15.694 29.8617 15.62 29.8041 15.566 29.7295Z" fill="#2D374B"/>
<path d="M30.1984 24.1042C30.2009 24.6884 30.2138 25.2734 30.2007 25.8568C30.2043 25.9935 30.17 26.1285 30.1016 26.2469C30.0332 26.3653 29.9334 26.4624 29.8132 26.5276C29.2249 26.8607 28.6472 27.2127 28.0536 27.5368C27.8175 27.106 27.5449 26.6958 27.2868 26.2773C25.9466 24.1051 24.605 21.9342 23.2618 19.7645C23.1814 19.6344 23.1077 19.4994 23.0179 19.3766C22.9886 19.3413 22.9727 19.2969 22.9727 19.2511C22.9727 19.2053 22.9886 19.161 23.0179 19.1257C23.3385 18.5895 23.6538 18.0502 23.9712 17.5118L24.852 16.0176C24.8676 15.9821 24.8951 15.9531 24.9297 15.9355C25.0829 16.1716 25.2374 16.4098 25.3916 16.6482C26.3183 18.0909 27.2447 19.5336 28.1709 20.9764C28.799 21.9552 29.4271 22.9342 30.055 23.9132C30.0895 23.9859 30.1383 24.0508 30.1984 24.1042Z" fill="white"/>
<path d="M27.1292 28.0722C26.7467 28.3232 26.341 28.5368 25.9467 28.7696C25.2318 29.1899 24.5124 29.6024 23.7951 30.018C23.7541 30.0412 23.7131 30.0629 23.6735 30.0853C23.6644 30.0189 23.6358 29.9567 23.5914 29.9066C22.9527 28.9027 22.3138 27.899 21.6749 26.8955C21.1499 26.0715 20.6234 25.2482 20.0954 24.4258C20.0596 24.3831 20.0389 24.3299 20.0364 24.2743C20.0339 24.2187 20.0497 24.1638 20.0815 24.1181C20.7872 22.9295 21.4901 21.739 22.19 20.5468C22.2066 20.5193 22.2199 20.4873 22.2612 20.4785C22.3186 20.4914 22.3325 20.5489 22.3598 20.5917C23.6316 22.595 24.9034 24.5984 26.1752 26.602C26.4458 27.0285 26.7151 27.456 26.9873 27.8816C27.022 27.9536 27.07 28.0185 27.1288 28.0726L27.1292 28.0722Z" fill="white"/>
</svg>
