<svg viewBox="0 0 40 40" fill="none" xmlns="http://www.w3.org/2000/svg">
<path d="M0 6C0 2.68629 2.68629 0 6 0H34C37.3137 0 40 2.68629 40 6V34C40 37.3137 37.3137 40 34 40H6C2.68629 40 0 37.3137 0 34V6Z" fill="#14151A"/>
<path d="M12.4788 10.2888L20.0002 6L27.5216 10.2888L24.7563 11.8732L20.0002 9.16878L15.2438 11.8732L12.4788 10.2888ZM27.5216 15.6976L24.7563 14.1132L20.0002 16.8177L15.2438 14.1132L12.4788 15.6976V18.8664L17.2349 21.5707V26.9796L20.0002 28.5641L22.7655 26.9796V21.5707L27.5216 18.8664V15.6976ZM27.5216 24.2751V21.1063L24.7563 22.6907V25.8596L27.5216 24.2751ZM29.4848 25.3952L24.7287 28.0994V31.2683L32.2501 26.9796V18.4021L29.4848 19.9862V25.3952ZM26.7196 12.9931L29.4848 14.5775V17.7464L32.2501 16.162V12.9931L29.4848 11.4088L26.7196 12.9931ZM17.2349 29.2469V32.4157L20.0002 34.0001L22.7655 32.4157V29.2469L20.0002 30.8313L17.2349 29.2469ZM12.4788 24.2751L15.2438 25.8596V22.6907L12.4788 21.1063V24.2751ZM17.2349 12.9931L20.0002 14.5775L22.7655 12.9931L20.0002 11.4088L17.2349 12.9931ZM10.5153 14.5775L13.2806 12.9931L10.5153 11.4088L7.75 12.9931V16.162L10.5153 17.7464V14.5775ZM10.5153 19.9862L7.75 18.4021V26.9796L15.2717 31.2683V28.0994L10.5153 25.3952V19.9862Z" fill="#F0B90B"/>
</svg>
