<svg viewBox="0 0 40 40" fill="none" xmlns="http://www.w3.org/2000/svg">
<path d="M0 6C0 2.68629 2.68629 0 6 0H34C37.3137 0 40 2.68629 40 6V34C40 37.3137 37.3137 40 34 40H6C2.68629 40 0 37.3137 0 34V6Z" fill="#FD3A50"/>
<path d="M14.1706 25.3157C12.9798 25.3157 12.0041 25.0355 11.2435 24.4751C10.493 23.9047 10.1177 23.0941 10.1177 22.0433C10.1177 21.8232 10.1427 21.5529 10.1927 21.2327C10.3229 20.5122 10.508 19.6465 10.7482 18.6358C11.4286 15.8838 13.185 14.5078 16.017 14.5078C16.7876 14.5078 17.4781 14.6379 18.0886 14.8981C18.699 15.1482 19.1794 15.5285 19.5296 16.0389C19.8798 16.5393 20.055 17.1397 20.055 17.8402C20.055 18.0504 20.03 18.3156 19.9799 18.6358C19.8298 19.5265 19.6497 20.3921 19.4395 21.2327C19.0893 22.6037 18.4838 23.6295 17.6232 24.31C16.7626 24.9805 15.6118 25.3157 14.1706 25.3157ZM14.3808 23.1541C14.9413 23.1541 15.4166 22.989 15.8069 22.6588C16.2072 22.3285 16.4924 21.8232 16.6625 21.1427C16.8926 20.202 17.0678 19.3813 17.1879 18.6809C17.2279 18.4707 17.2479 18.2556 17.2479 18.0353C17.2479 17.1247 16.7726 16.6693 15.8219 16.6693C15.2614 16.6693 14.7811 16.8345 14.3808 17.1647C13.9906 17.495 13.7103 18.0004 13.5402 18.6809C13.3601 19.3513 13.1799 20.172 12.9998 21.1427C12.9598 21.3428 12.9398 21.5529 12.9398 21.7731C12.9398 22.6938 13.4202 23.1541 14.3808 23.1541Z" fill="white"/>
<path d="M20.7444 25.166C20.6343 25.166 20.5492 25.1309 20.4892 25.0608C20.4391 24.9808 20.4241 24.8908 20.4441 24.7907L22.5156 15.0335C22.5356 14.9234 22.5907 14.8333 22.6808 14.7632C22.7708 14.6932 22.8659 14.6582 22.966 14.6582H26.9589C28.0697 14.6582 28.9604 14.8884 29.6308 15.3487C30.3114 15.8091 30.6516 16.4745 30.6516 17.3452C30.6516 17.5953 30.6216 17.8556 30.5616 18.1257C30.3114 19.2766 29.806 20.1272 29.0455 20.6776C28.2949 21.228 27.2641 21.5032 25.9532 21.5032H23.9267L23.2362 24.7907C23.2161 24.9008 23.1611 24.9908 23.0711 25.0608C22.981 25.1309 22.8859 25.166 22.7859 25.166H20.7444ZM26.0583 19.4317C26.4785 19.4317 26.8438 19.3166 27.154 19.0864C27.4743 18.8563 27.6844 18.526 27.7845 18.0957C27.8145 17.9256 27.8296 17.7755 27.8296 17.6454C27.8296 17.3552 27.7445 17.135 27.5744 16.9849C27.4042 16.8248 27.114 16.7448 26.7037 16.7448H24.9024L24.332 19.4317H26.0583Z" fill="white"/>
</svg>
