<svg viewBox="0 0 40 40" fill="none" xmlns="http://www.w3.org/2000/svg">
<path d="M0 6C0 2.68629 2.68629 0 6 0H34C37.3137 0 40 2.68629 40 6V34C40 37.3137 37.3137 40 34 40H6C2.68629 40 0 37.3137 0 34V6Z" fill="#8247E5"/>
<path d="M26.6119 15.6104C26.1627 15.3537 25.5851 15.3537 25.0716 15.6104L21.4776 17.7284L19.0388 19.0761L15.509 21.194C15.0597 21.4507 14.4821 21.4507 13.9687 21.194L11.209 19.5254C10.7597 19.2687 10.4388 18.7552 10.4388 18.1776V14.9687C10.4388 14.4552 10.6955 13.9418 11.209 13.6209L13.9687 12.0164C14.4179 11.7597 14.9955 11.7597 15.509 12.0164L18.2687 13.6851C18.7179 13.9418 19.0388 14.4552 19.0388 15.0328V17.1507L21.4776 15.7388V13.5567C21.4776 13.0433 21.2209 12.5299 20.7075 12.209L15.5731 9.19254C15.1239 8.93582 14.5463 8.93582 14.0328 9.19254L8.77015 12.2731C8.25672 12.5299 8 13.0433 8 13.5567V19.5896C8 20.103 8.25672 20.6164 8.77015 20.9373L13.9687 23.9537C14.4179 24.2104 14.9955 24.2104 15.509 23.9537L19.0388 21.9L21.4776 20.4881L25.0075 18.4343C25.4567 18.1776 26.0343 18.1776 26.5478 18.4343L29.3075 20.0388C29.7567 20.2955 30.0776 20.809 30.0776 21.3866V24.5955C30.0776 25.109 29.8209 25.6224 29.3075 25.9433L26.6119 27.5478C26.1627 27.8045 25.5851 27.8045 25.0716 27.5478L22.3119 25.9433C21.8627 25.6866 21.5418 25.1731 21.5418 24.5955V22.5418L19.103 23.9537V26.0716C19.103 26.5851 19.3597 27.0985 19.8731 27.4194L25.0716 30.4358C25.5209 30.6925 26.0985 30.6925 26.6119 30.4358L31.8104 27.4194C32.2597 27.1627 32.5806 26.6493 32.5806 26.0716V19.9746C32.5806 19.4612 32.3239 18.9478 31.8104 18.6269L26.6119 15.6104Z" fill="white"/>
</svg>
